<svg xmlns="http://www.w3.org/2000/svg" xmlns:xlink="http://www.w3.org/1999/xlink" width="1280" zoomAndPan="magnify" viewBox="0 0 960 599.999999" height="800" preserveAspectRatio="xMidYMid meet" version="1.0"><defs><clipPath id="8f071b8f14"><path d="M 341 176.414062 L 620.433594 176.414062 L 620.433594 423.914062 L 341 423.914062 Z M 341 176.414062 " clip-rule="nonzero"/></clipPath><clipPath id="754513cedb"><path d="M 565.296875 423.375 C 565.296875 423.375 565.601562 423.375 565.296875 423.375 L 603.679688 423.375 C 612.820312 423.375 620.433594 415.761719 620.433594 406.621094 L 620.433594 387.125 C 620.433594 382.554688 618.605469 378.289062 615.558594 375.242188 C 612.210938 372.199219 607.945312 370.371094 603.679688 370.371094 L 584.792969 370.675781 L 517.164062 299.695312 L 584.792969 229.324219 L 603.679688 229.628906 C 608.25 229.628906 612.515625 228.105469 615.558594 224.753906 C 618.910156 221.707031 620.433594 217.441406 620.433594 212.871094 L 620.433594 193.375 C 620.433594 184.238281 612.820312 176.621094 603.679688 176.621094 L 565.296875 176.621094 C 564.992188 176.621094 564.6875 176.621094 564.382812 176.925781 C 563.773438 176.925781 563.46875 177.230469 563.164062 177.535156 L 451.96875 288.421875 C 448.925781 291.46875 447.097656 295.734375 447.097656 300 C 447.097656 304.261719 448.925781 308.527344 451.96875 311.574219 L 563.164062 422.460938 C 563.773438 423.070312 564.6875 423.375 565.296875 423.375 Z M 603.679688 376.460938 C 606.421875 376.460938 609.164062 377.679688 610.992188 379.507812 C 613.125 381.640625 614.039062 384.078125 614.039062 387.125 L 614.039062 406.621094 C 614.039062 412.410156 609.164062 417.285156 603.375 417.285156 L 566.210938 417.285156 L 456.234375 307.308594 C 454.40625 305.480469 453.1875 302.738281 453.1875 300 C 453.1875 297.257812 454.40625 294.515625 456.234375 292.6875 L 566.515625 182.714844 L 603.679688 182.714844 C 609.46875 182.714844 614.34375 187.585938 614.34375 193.375 L 614.34375 212.871094 C 614.34375 215.613281 613.125 218.355469 611.296875 220.488281 C 609.164062 222.621094 606.421875 223.535156 603.679688 223.535156 L 583.574219 223.230469 C 582.660156 223.230469 582.050781 223.535156 581.441406 224.144531 L 511.070312 297.5625 C 509.851562 298.78125 509.851562 300.609375 511.070312 301.828125 L 581.136719 375.851562 C 581.746094 376.460938 582.660156 376.765625 583.269531 376.765625 Z M 464.765625 423.375 C 464.765625 423.375 465.070312 423.375 465.070312 423.375 L 504.367188 422.460938 C 508.632812 422.460938 512.289062 419.71875 514.117188 415.761719 C 515.640625 411.800781 515.03125 407.230469 511.984375 404.183594 L 410.84375 299.390625 L 512.289062 195.203125 C 515.335938 192.15625 516.25 187.585938 514.421875 183.628906 C 512.59375 179.667969 508.9375 177.230469 504.671875 176.925781 L 465.070312 176.621094 C 460.195312 176.621094 455.320312 178.449219 451.96875 182.105469 L 345.957031 288.421875 C 339.558594 294.820312 339.558594 305.175781 345.957031 311.878906 L 451.664062 417.894531 C 455.015625 421.242188 459.890625 423.375 464.765625 423.375 Z M 464.765625 182.714844 L 504.671875 183.019531 C 506.5 183.019531 508.023438 184.238281 508.9375 185.757812 C 509.546875 187.585938 509.242188 189.414062 508.023438 190.632812 L 404.445312 297.257812 C 403.230469 298.476562 403.230469 300.304688 404.445312 301.523438 L 507.414062 408.449219 C 508.632812 409.667969 508.9375 411.496094 508.328125 413.324219 C 507.71875 415.152344 506.195312 416.066406 504.0625 416.066406 L 464.765625 416.980469 C 461.414062 416.980469 458.0625 415.761719 455.625 413.324219 L 349.613281 307.003906 C 345.652344 303.042969 345.652344 296.34375 349.613281 292.382812 L 455.929688 186.367188 C 458.367188 183.933594 461.414062 182.714844 464.765625 182.714844 Z M 464.765625 182.714844 " clip-rule="nonzero"/></clipPath></defs><g clip-path="url(#8f071b8f14)"><g clip-path="url(#754513cedb)"><path fill="#ffffff" d="M 620.433594 176.621094 L 620.433594 423.375 L 339.558594 423.375 L 339.558594 176.621094 Z M 620.433594 176.621094 " fill-opacity="1" fill-rule="nonzero"/></g></g></svg>